<?xml version="1.0" encoding="UTF-8" standalone="no"?>
<svg width="200px" height="78px" viewBox="0 0 200 78" version="1.1" xmlns="http://www.w3.org/2000/svg" xmlns:xlink="http://www.w3.org/1999/xlink" xmlns:sketch="http://www.bohemiancoding.com/sketch/ns">
    <!-- Generator: sketchtool 3.5.2 (25235) - http://www.bohemiancoding.com/sketch -->
    <title>ico-click</title>
    <desc>Created with sketchtool.</desc>
    <defs>
        <linearGradient x1="50%" y1="0%" x2="50%" y2="100%" id="linearGradient-1">
            <stop stop-color="#3C90FA" offset="0%"></stop>
            <stop stop-color="#1C80C4" offset="100%"></stop>
        </linearGradient>
        <path d="M45.9392515,0.614795474 L17.9872933,28.5796345 C17.191819,29.3754569 17.1911227,30.6651001 17.9860748,31.4600522 L17.9860748,31.4600522 L28.5397737,42.0172324 C29.3343777,42.8123586 30.6236728,42.8116623 31.4193211,42.0160139 L31.4193211,42.0160139 L59.3712794,14.051349 C60.1667537,13.2555265 60.16745,11.9657093 59.3724978,11.1707572 L59.3724978,11.1707572 L48.818799,0.613577023 C48.4217581,0.21618799 47.9009574,0.0175805048 47.3803307,0.0175805048 L47.3803307,0.0175805048 C46.8588338,0.0175805048 46.3373368,0.216710183 45.9392515,0.614795474 M63.2088773,17.8901654 L31.4158399,49.6974761 C30.6236728,50.4898172 29.3422106,50.4936466 28.5465622,49.7084421 L28.5465622,49.7084421 L14.1448216,35.302698 C13.3500435,34.5073977 12.0607485,34.508094 11.2652742,35.3039164 L11.2652742,35.3039164 L0.378416014,46.1940818 C-0.125848564,46.7138381 0.0419495213,48.0684073 0.663707572,48.7141862 L0.663707572,48.7141862 L16.5312446,64.5867711 L16.5302002,64.5878155 L28.5235857,76.5841601 L28.5241079,76.5836379 C29.3187119,77.3787641 30.608181,77.3780679 31.4036554,76.5824195 L31.4036554,76.5824195 L43.4078329,64.5742385 L76.6409051,31.3265448 C77.4358573,30.5315927 77.4369017,29.2435161 76.6442124,28.4482158 L76.6442124,28.4482158 L66.0706701,17.8720627 C65.675718,17.4863359 65.1625762,17.2932985 64.6494343,17.2932985 L64.6494343,17.2932985 C64.1281114,17.2932985 63.6067885,17.4922541 63.2088773,17.8901654" id="path-2"></path>
        <path id="path-4" d="M0,0.0175805048 L199.953351,0.0175805048 L199.953351,77.2845953 L0,77.2845953"></path>
        <path id="path-6" d="M0,0.0175805048 L199.953351,0.0175805048 L199.953351,77.2845953 L0,77.2845953 L0,0.0175805048 Z"></path>
    </defs>
    <g id="paymark" stroke="none" stroke-width="1" fill="none" fill-rule="evenodd" sketch:type="MSPage">
        <g id="Styles" sketch:type="MSArtboardGroup" transform="translate(-1422.000000, -2102.000000)">
            <g id="ico-click" sketch:type="MSLayerGroup" transform="translate(1422.000000, 2102.000000)">
                <g id="Page-1">
                    <g id="Group-3" transform="translate(122.715405, 0.000000)">
                        <mask id="mask-3" sketch:name="Clip 2" fill="white">
                            <use xlink:href="#path-2"></use>
                        </mask>
                        <g id="Clip-2">
                            <use fill="#197ED6" sketch:type="MSShapeGroup" xlink:href="#path-2"></use>
                            <use fill="url(#linearGradient-1)" xlink:href="#path-2"></use>
                        </g>
                    </g>
                    <g id="Group-34">
                        <g id="Group-6">
                            <mask id="mask-5" sketch:name="Clip 5" fill="white">
                                <use xlink:href="#path-4"></use>
                            </mask>
                            <g id="Clip-5"></g>
                            <path d="M28.0581027,35.587067 L23.7540122,39.7287554 C22.4951784,37.8608703 20.3024891,36.5616536 17.2977894,36.5616536 C10.8008355,36.5616536 6.25305483,41.2720104 6.25305483,48.5402437 C6.21267189,53.4128285 9.33921671,56.1740122 13.6027502,56.1740122 C16.60745,56.1740122 19.1656745,55.0775805 21.3583638,52.9661793 L24.6878677,57.8793211 C21.3583638,60.7217929 17.5820366,61.8180505 13.237215,61.8180505 C5.23808529,61.8180505 -3.48128808e-05,56.7830635 -3.48128808e-05,48.8650479 C-3.48128808e-05,39.1197041 7.83686684,30.9174413 17.6225936,30.9174413 C22.6170235,30.9174413 25.5813403,32.6229243 28.0581027,35.587067" id="Fill-4" fill="#292540" sketch:type="MSShapeGroup" mask="url(#mask-5)"></path>
                        </g>
                        <path d="M34.9262837,31.445396 L38.7607485,31.445396 L34.456658,55.8492254 L47.1661445,55.8492254 L46.2321149,61.2901305 L27.3100957,61.2901305 L31.972933,34.7228547 C31.972933,34.7228547 32.3537859,31.445396 34.9262837,31.445396" id="Fill-7" fill="#292540" sketch:type="MSShapeGroup"></path>
                        <path d="M57.6418799,31.445396 L61.604282,31.445396 L56.3663359,61.2901305 L50.1536292,61.2901305 L54.7840905,34.9077111 C54.7840905,34.9077111 55.2276066,31.445396 57.6418799,31.445396" id="Fill-9" fill="#292540" sketch:type="MSShapeGroup"></path>
                        <path d="M90.4279896,35.587067 L86.123899,39.7287554 C84.8652393,37.8608703 82.672376,36.5616536 79.6676762,36.5616536 C73.1708964,36.5616536 68.6231158,41.2720104 68.6231158,48.5402437 C68.5825587,53.4128285 71.7089295,56.1740122 75.9726371,56.1740122 C78.9773368,56.1740122 81.5355614,55.0775805 83.7280766,52.9661793 L87.0577546,57.8793211 C83.7280766,60.7217929 79.9519234,61.8180505 75.6071018,61.8180505 C67.6079721,61.8180505 62.369852,56.7830635 62.369852,48.8650479 C62.369852,39.1197041 70.2067537,30.9174413 79.9924804,30.9174413 C84.9869104,30.9174413 87.9510531,32.6229243 90.4279896,35.587067" id="Fill-11" fill="#292540" sketch:type="MSShapeGroup"></path>
                        <path d="M112.503551,31.461584 C112.79389,31.461584 118.225222,31.445396 118.225222,31.445396 L107.018433,45.7790775 L115.098851,61.2903046 L107.708599,61.2903046 C107.816519,61.5433943 106.367607,58.6116275 105.037232,55.8943081 C103.928964,53.6307746 103.204856,51.5160661 102.592324,51.5160661 C101.939234,51.5160661 100.742889,53.3315579 99.0871889,55.4748129 C97.0147781,58.1574935 94.7150392,61.2903046 94.7150392,61.2903046 L89.6800522,61.2903046 L94.2965883,34.9869104 C94.2965883,34.9869104 94.8991993,31.445396 96.7759617,31.445396 L101.130531,31.445396 L98.0041601,48.6213751 L108.769347,34.256188 C108.769347,34.256188 110.600331,31.461584 112.503551,31.461584" id="Fill-13" fill="#292540" sketch:type="MSShapeGroup"></path>
                        <path d="M49.7233768,76.5626284 L48.0168494,76.5626284 L48.0168494,74.218503 L49.5639339,74.218503 C50.2953525,74.218503 50.904752,74.7060574 50.904752,75.3718538 C50.904752,76.0468755 50.4077981,76.5626284 49.7233768,76.5626284 L49.7233768,76.5626284 Z M48.0356484,71.2742037 L49.5639339,71.2742037 C50.285953,71.2742037 50.6890862,71.7243342 50.6890862,72.399356 C50.6890862,73.0559269 50.285953,73.5715057 49.5639339,73.5715057 L48.0356484,73.5715057 L48.0356484,71.2742037 Z M50.5672411,73.8527937 C51.0079721,73.5997041 51.4861271,73.0745518 51.4861271,72.3525326 C51.4861271,71.3680244 50.7078851,70.6273803 49.5639339,70.6273803 L47.5104961,70.6273803 C47.40745,70.6273803 47.3324282,70.7118016 47.3324282,70.8054482 L47.3324282,77.0127589 C47.3324282,77.1064056 47.40745,77.1908268 47.5104961,77.1908268 L49.6483551,77.1908268 C50.8579286,77.1908268 51.6923934,76.4313838 51.6923934,75.3810792 C51.6923934,74.5185901 51.064195,74.0590601 50.5672411,73.8527937 L50.5672411,73.8527937 Z" id="Fill-15" fill="#292540" sketch:type="MSShapeGroup"></path>
                        <path d="M58.9214447,70.6273281 L58.4807137,70.6273281 C58.4150914,70.6273281 58.3588686,70.6741514 58.3306701,70.7117493 L56.4366754,73.3277633 L54.5426806,70.7117493 C54.5144822,70.6741514 54.4582594,70.6273281 54.3926371,70.6273281 L53.951906,70.6273281 C53.8020366,70.6273281 53.7270148,70.7773716 53.8020366,70.8992167 L56.0615666,74.0309835 L56.0615666,77.0127067 C56.0615666,77.1065274 56.1365883,77.1907746 56.2398085,77.1907746 L56.6055178,77.1907746 C56.6991645,77.1907746 56.7835857,77.1065274 56.7835857,77.0127067 L56.7835857,74.021584 L59.0714883,70.8992167 C59.14651,70.7773716 59.0714883,70.6273281 58.9214447,70.6273281" id="Fill-17" fill="#292540" sketch:type="MSShapeGroup"></path>
                        <path d="M68.0723238,74.1153525 L66.5814621,74.1153525 L66.5814621,71.3398956 L68.0723238,71.3398956 C68.8411662,71.3398956 69.4975631,71.9212707 69.4975631,72.6807137 C69.4975631,73.487154 68.8411662,74.1153525 68.0723238,74.1153525 M68.1191471,70.6272759 L66.0469104,70.6272759 C65.9438642,70.6272759 65.8688425,70.7116971 65.8688425,70.8055178 L65.8688425,77.0126545 C65.8688425,77.1064752 65.9438642,77.1908964 66.0469104,77.1908964 L66.4033943,77.1908964 C66.4970409,77.1908964 66.5814621,77.1064752 66.5814621,77.0126545 L66.5814621,74.8091732 L68.1285466,74.8091732 C69.2724978,74.8091732 70.2195822,73.8622628 70.2195822,72.6995126 C70.2195822,71.5649608 69.2724978,70.6272759 68.1191471,70.6272759" id="Fill-19" fill="#292540" sketch:type="MSShapeGroup"></path>
                        <path d="M73.2572846,74.9592167 L74.6263011,71.8836728 L74.7011488,71.8836728 C75.1606789,72.9057789 75.6108094,73.9372846 76.0701654,74.9592167 L73.2572846,74.9592167 Z M74.8793908,70.6366754 C74.8511923,70.5804526 74.804369,70.5336292 74.7199478,70.5336292 L74.6263011,70.5336292 C74.5418799,70.5336292 74.4948825,70.5804526 74.4668581,70.6366754 L71.6163795,76.9470322 C71.5601567,77.0688773 71.6351784,77.1908964 71.7758225,77.1908964 L72.1509312,77.1908964 C72.2353525,77.1908964 72.2914012,77.1344996 72.3103742,77.0876762 L72.9947955,75.5405918 L76.3234291,75.5405918 L77.0172498,77.0876762 C77.0360487,77.1344996 77.0922715,77.1908964 77.1766928,77.1908964 L77.5516275,77.1908964 C77.6922715,77.1908964 77.7672933,77.0688773 77.7110705,76.9470322 L74.8793908,70.6366754 Z" id="Fill-21" fill="#292540" sketch:type="MSShapeGroup"></path>
                        <path d="M84.0399304,70.6273281 L83.5991993,70.6273281 C83.533577,70.6273281 83.4773542,70.6741514 83.4491558,70.7117493 L81.555161,73.3277633 L79.6611662,70.7117493 C79.6329678,70.6741514 79.576745,70.6273281 79.5111227,70.6273281 L79.0703916,70.6273281 C78.9205222,70.6273281 78.8455004,70.7773716 78.9205222,70.8992167 L81.1800522,74.0309835 L81.1800522,77.0127067 C81.1800522,77.1065274 81.255074,77.1907746 81.3582942,77.1907746 L81.7240035,77.1907746 C81.8176501,77.1907746 81.9020714,77.1065274 81.9020714,77.0127067 L81.9020714,74.021584 L84.1899739,70.8992167 C84.2649956,70.7773716 84.1899739,70.6273281 84.0399304,70.6273281" id="Fill-23" fill="#292540" sketch:type="MSShapeGroup"></path>
                        <g id="Group-27">
                            <mask id="mask-7" sketch:name="Clip 26" fill="white">
                                <use xlink:href="#path-6"></use>
                            </mask>
                            <g id="Clip-26"></g>
                            <path d="M91.7095909,70.664839 C91.690792,70.5898172 91.6157702,70.5335944 91.5407485,70.5335944 L91.390879,70.5335944 C91.3250827,70.5335944 91.250235,70.5804178 91.231436,70.6366406 L89.4028895,75.8030461 L89.3560661,75.8030461 L87.4996693,70.6366406 C87.4808703,70.5804178 87.4058486,70.5335944 87.3402263,70.5335944 L87.1901828,70.5335944 C87.115161,70.5335944 87.0401393,70.5898172 87.0213403,70.664839 L85.8117668,76.9657963 C85.7837424,77.0970409 85.8399652,77.1908616 85.9806092,77.1908616 L86.355544,77.1908616 C86.4307398,77.1908616 86.5149869,77.1252393 86.5243864,77.0596171 L87.3402263,72.2307224 L87.3776501,72.2307224 L89.1216014,77.1814621 C89.1404003,77.2376849 89.2248216,77.2846823 89.2810444,77.2846823 L89.4498869,77.2846823 C89.5061097,77.2846823 89.5905309,77.2376849 89.6093299,77.1814621 L91.3344822,72.2307224 L91.3720801,72.2307224 L92.2065448,77.0596171 C92.2253438,77.1252393 92.3003655,77.1908616 92.3753873,77.1908616 L92.750322,77.1908616 C92.8909661,77.1908616 92.9471889,77.0970409 92.9191645,76.9657963 L91.7095909,70.664839 Z" id="Fill-25" fill="#292540" sketch:type="MSShapeGroup" mask="url(#mask-7)"></path>
                        </g>
                        <path d="M96.4163621,74.9592167 L97.7853786,71.8836728 L97.8602263,71.8836728 C98.3197563,72.9057789 98.7697128,73.9372846 99.2292428,74.9592167 L96.4163621,74.9592167 Z M98.0384682,70.6366754 C98.0102698,70.5804526 97.9634465,70.5336292 97.8790252,70.5336292 L97.7853786,70.5336292 C97.7009574,70.5336292 97.65396,70.5804526 97.6259356,70.6366754 L94.7754569,76.9470322 C94.7192341,77.0688773 94.7942559,77.1908964 94.9348999,77.1908964 L95.3098346,77.1908964 C95.3942559,77.1908964 95.4504787,77.1344996 95.4692776,77.0876762 L96.1538729,75.5405918 L99.4823325,75.5405918 L100.176327,77.0876762 C100.195126,77.1344996 100.251349,77.1908964 100.33577,77.1908964 L100.710705,77.1908964 C100.851349,77.1908964 100.926371,77.0688773 100.870148,76.9470322 L98.0384682,70.6366754 Z" id="Fill-28" fill="#292540" sketch:type="MSShapeGroup"></path>
                        <path d="M105.764369,74.0028372 L103.945396,74.0028372 L103.945396,71.3118016 L105.764369,71.3118016 C106.486388,71.3118016 107.114587,71.921201 107.114587,72.6338207 C107.114587,73.4028372 106.486388,74.0028372 105.764369,74.0028372 M107.855405,72.6244212 C107.855405,71.5086684 106.936519,70.6273803 105.811192,70.6273803 L103.38282,70.6273803 C103.2796,70.6273803 103.204752,70.7118016 103.204752,70.8054482 L103.204752,77.0127589 C103.204752,77.1064056 103.2796,77.1908268 103.38282,77.1908268 L103.748529,77.1908268 C103.842176,77.1908268 103.926597,77.1064056 103.926597,77.0127589 L103.926597,74.6216362 L105.717546,74.6216362 L106.964543,77.1064056 C106.983342,77.1440035 107.030165,77.1908268 107.114587,77.1908268 L107.592742,77.1908268 C107.752185,77.1908268 107.817807,77.0407833 107.752185,76.9189382 L106.467589,74.537215 C107.283429,74.2091036 107.855405,73.4870844 107.855405,72.6244212" id="Fill-30" fill="#292540" sketch:type="MSShapeGroup"></path>
                        <path d="M115.065657,76.9001567 L111.962089,73.7215666 L114.925013,70.9555091 C115.074883,70.8148651 114.981236,70.6273977 114.812393,70.6273977 L114.353037,70.6273977 C114.296815,70.6273977 114.212393,70.6742211 114.174795,70.7210444 L111.249469,73.5059008 L111.249469,70.8522889 C111.249469,70.7304439 111.146249,70.6273977 111.024404,70.6273977 L110.752515,70.6273977 C110.621097,70.6273977 110.52745,70.7304439 110.52745,70.8522889 L110.52745,76.9657789 C110.52745,77.087624 110.621097,77.1908442 110.752515,77.1908442 L111.024404,77.1908442 C111.146249,77.1908442 111.249469,77.087624 111.249469,76.9657789 L111.249469,73.9840557 L114.259217,77.1252219 C114.278016,77.1532463 114.362437,77.1908442 114.428059,77.1908442 L114.906214,77.1908442 C115.11248,77.1908442 115.131279,76.9657789 115.065657,76.9001567" id="Fill-32" fill="#292540" sketch:type="MSShapeGroup"></path>
                    </g>
                </g>
            </g>
        </g>
    </g>
</svg>