<svg id="Layer_1" data-name="Layer 1" xmlns="http://www.w3.org/2000/svg" viewBox="0 0 101.5 42"><defs><style>.cls-1{fill:#fff;}.cls-2{isolation:isolate;}</style></defs><title>Artboard 1</title><path class="cls-1" d="M34.22,7.81h4.64c2.81,0,4,1.77,4,4.27a4,4,0,0,1-4.29,4.33h-2v6.05H34.22Zm2.34,6.83h1.66a2.21,2.21,0,0,0,2.34-2.52c0-1.58-.64-2.54-2.5-2.54h-1.5Z"/><path class="cls-1" d="M50.85,20.16c0,.41.24.78.57.78a1,1,0,0,0,.37-.06v1.44a2.73,2.73,0,0,1-1.09.26c-1,0-1.8-.39-1.86-1.45h-.05a2.87,2.87,0,0,1-2.74,1.62c-1.77,0-2.88-1-2.88-3.1,0-2.46,1.07-3,2.57-3.47l1.72-.47c.8-.23,1.29-.45,1.29-1.42s-.34-1.64-1.51-1.64c-1.48,0-1.69,1-1.69,2.12H43.46c0-2.34,1-3.64,3.88-3.64,1.95,0,3.51.76,3.51,2.71Zm-2.1-3.53a14.5,14.5,0,0,1-2.46,1,1.82,1.82,0,0,0-.9,1.78c0,.93.45,1.67,1.37,1.67,1.34,0,2-1,2-2.63Z"/><path class="cls-1" d="M54.29,11.42l1.91,8.29h0L58,11.42h2.31l-3,11.45c-.86,3-1.58,3.4-3.86,3.36a6.54,6.54,0,0,1-.88-.08V24.39a4.41,4.41,0,0,0,.72.08c.76,0,1.25-.16,1.49-.86l.29-.9L51.91,11.42Z"/><path class="cls-1" d="M61.28,11.42h2.09v1.29h.06a3.11,3.11,0,0,1,2.65-1.58,2.38,2.38,0,0,1,2.56,1.69,3,3,0,0,1,2.79-1.69c1.56,0,2.69.81,2.69,2.94v8.39H71.91V14.89c0-1.44-.44-2-1.34-2s-1.76.72-1.76,2.15v7.41H66.59V14.89c0-1.44-.43-2-1.35-2s-1.75.72-1.75,2.15v7.41H61.28Z"/><path class="cls-1" d="M83.24,20.16c0,.41.25.78.57.78a.92.92,0,0,0,.37-.06v1.44a2.64,2.64,0,0,1-1.08.26c-1,0-1.81-.39-1.87-1.45h0a2.89,2.89,0,0,1-2.75,1.62c-1.76,0-2.87-1-2.87-3.1,0-2.46,1.06-3,2.56-3.47l1.73-.47c.8-.23,1.29-.45,1.29-1.42s-.35-1.64-1.52-1.64c-1.48,0-1.68,1-1.68,2.12H75.86c0-2.34,1-3.64,3.87-3.64,2,0,3.51.76,3.51,2.71Zm-2.09-3.53a15.21,15.21,0,0,1-2.46,1,1.81,1.81,0,0,0-.91,1.78c0,.93.46,1.67,1.38,1.67,1.33,0,2-1,2-2.63Z"/><path class="cls-1" d="M85.28,11.42H87.5v1.73h0a2.72,2.72,0,0,1,2.56-2,1.77,1.77,0,0,1,.54.09v2.25a4.4,4.4,0,0,0-.93-.12c-1,0-2.21.45-2.21,2.5v6.61H85.28Z"/><path class="cls-1" d="M91.53,7.81h2.21V16h0l3.35-4.62,2.56,0-3.32,4.27,3.75,6.79H97.7l-2.71-5L93.74,19v3.51H91.53Z"/><path class="cls-1" d="M16.84,17.41a.64.64,0,0,0-1.28,0A.65.65,0,0,0,16,18l-.31,1.63a.36.36,0,0,0,.17.38.68.68,0,0,0,.73,0,.43.43,0,0,0,.18-.38L16.45,18A.62.62,0,0,0,16.84,17.41Z"/><path class="cls-1" d="M16.16,8.92A1.45,1.45,0,0,0,14.7,10.4v2.89a.46.46,0,0,1-.42.45c.27.1.52-.05.62-.41l.37-1.91h2.37v-1a1.47,1.47,0,0,0-.44-1A1.43,1.43,0,0,0,16.16,8.92Z"/><path class="cls-1" d="M16.2.46a14.7,14.7,0,1,0,14.69,14.7A14.7,14.7,0,0,0,16.2.46Zm0,27.89A13.22,13.22,0,1,1,29.41,15.14,13.2,13.2,0,0,1,16.2,28.35Z"/><path class="cls-1" d="M16.2,3.3a12,12,0,1,0,12,12A12,12,0,0,0,16.2,3.3Zm0,22.44A10.57,10.57,0,1,1,26.77,15.18,10.56,10.56,0,0,1,16.2,25.74Z"/><path class="cls-1" d="M16.2,5.93a9.29,9.29,0,1,0,9.28,9.28A9.28,9.28,0,0,0,16.2,5.93Zm4.54,14.35a.92.92,0,0,1-1,1H12.62a1,1,0,0,1-1-1V11.42H13.8v-1A2.37,2.37,0,0,1,16.16,8a2.37,2.37,0,0,1,2.38,2.37v2.9a.44.44,0,0,1-.43.44c.27.12.53,0,.64-.4l.37-1.91h1.62Zm1.08-8.75h-.2v.76h-.14v-.76h-.21v-.11h.55Zm.84.76h-.13v-.73h0l-.18.73h-.12l-.17-.73h0v.73h-.14v-.87h.22l.16.64h0l.15-.64h.21Z"/><path class="cls-1" d="M34.47,37.16V32.21h1.1v4.95Z"/><path class="cls-1" d="M37,29.6h19.8v.91H37Z"/><path class="cls-1" d="M44.3,39.24A5.86,5.86,0,0,1,42.54,39l.13-1a5.82,5.82,0,0,0,1.44.2c.71,0,1.23-.13,1.23-1V37a1.58,1.58,0,0,1-.91.33c-1,0-2.28-.33-2.28-2.54a2.41,2.41,0,0,1,2.21-2.6h.27l1.82.2v5A1.94,1.94,0,0,1,44.3,39.24Zm1-6.06h-.78c-.91,0-1.3.72-1.3,1.63s.52,1.56,1.24,1.56a3,3,0,0,0,.84-.19Z"/><path class="cls-1" d="M48.6,35c0,1.1.59,1.23,1.43,1.23h1.24l.2.92a6,6,0,0,1-1.63.19c-1.44,0-2.41-.58-2.41-2.47s1-2.74,2.28-2.74,1.89,1,1.89,2.54v.39Zm1-2c-.52,0-1,.39-1,1.17h1.82C50.42,33.44,50.1,33,49.64,33Z"/><path class="cls-1" d="M58.18,37.16V32.21h1.1v4.95Z"/><path class="cls-1" d="M63.84,33.31a2.62,2.62,0,0,0-1.11-.26c-.71,0-1.23.46-1.23,1.63s.26,1.63,1.5,1.63l1-.13.13.91a5.73,5.73,0,0,1-1.17.2c-1.89,0-2.54-.78-2.54-2.61s.91-2.6,2.34-2.6a2.59,2.59,0,0,1,1.44.32Z"/><path class="cls-1" d="M67,37.29c-1.43,0-2.22-1-2.22-2.54A2.38,2.38,0,0,1,67,32.08c1.37,0,2.28,1,2.28,2.6A2.37,2.37,0,0,1,67,37.29ZM67,33.05c-.91,0-1.17.78-1.17,1.63s.26,1.63,1.17,1.63,1.11-.72,1.11-1.63S68,33.05,67,33.05Z"/><path class="cls-1" d="M35.7,30.06a.72.72,0,0,1-.65.65.65.65,0,1,1,0-1.3A.71.71,0,0,1,35.7,30.06Z"/><path class="cls-1" d="M59.35,30.06a.66.66,0,0,1-.59.65.65.65,0,1,1,.59-.65Z"/><path class="cls-1" d="M39.68,32.08a2.43,2.43,0,0,0-1.57.65h0a.7.7,0,0,0-.71-.52H37v4.95h1.1V33.51a3.57,3.57,0,0,1,1.18-.39c.65,0,.78.32.78,1v3h1.1V34C41.17,33,41.11,32.08,39.68,32.08Z"/><path class="cls-1" d="M55.24,32.08a2.21,2.21,0,0,0-1.49.65h-.07a.64.64,0,0,0-.65-.52h-.46v4.95h1.18V33.51a3.44,3.44,0,0,1,1.17-.39c.65,0,.78.32.78,1v3h1.11V34C56.81,33,56.68,32.08,55.24,32.08Z"/><path class="cls-1" d="M58.7,41.39a1.66,1.66,0,0,1-.79.2c-.91,0-1.3-.46-1.3-1.5s.39-1.5,1.3-1.5l.72.13v.39a1.27,1.27,0,0,0-.72-.13c-.58,0-.91.26-.91,1.11s.26,1.1.91,1.1h.46V40h.33Z"/><path class="cls-1" d="M60.65,40.22l.72,1.3h-.46l-.65-1.24h-.52v1.24h-.39V38.65h.91c.65,0,.91.27.91.85A.66.66,0,0,1,60.65,40.22ZM60.26,39h-.52v1h.52c.39,0,.52-.13.52-.52S60.65,39,60.26,39Z"/><path class="cls-1" d="M62.8,41.59c-.78,0-1.11-.46-1.11-1.5s.33-1.5,1.11-1.5,1.17.46,1.17,1.5S63.65,41.59,62.8,41.59Zm0-2.61c-.52,0-.72.2-.72,1.11s.2,1.1.72,1.1.78-.26.78-1.1S63.39,39,62.8,39Z"/><path class="cls-1" d="M66.71,40.48a1,1,0,0,1-.83,1.11H65.6c-.65,0-1-.33-1-1.11V38.65H65v1.83c0,.52.19.71.65.71a.65.65,0,0,0,.72-.57v-2h.39Z"/><path class="cls-1" d="M68.34,40.48h-.59v1h-.39V38.65h1c.65,0,1,.27,1,.92S69,40.48,68.34,40.48Zm0-1.5h-.59v1.11h.59c.39,0,.58-.07.58-.52S68.73,39,68.34,39Z"/><g class="cls-2"><path class="cls-1" d="M27.26,36.81a2.17,2.17,0,0,1-.61.38,1.85,1.85,0,0,1-.63.11,1.25,1.25,0,0,1-.86-.27.93.93,0,0,1-.29-.7.86.86,0,0,1,.11-.45.85.85,0,0,1,.29-.33,1.46,1.46,0,0,1,.42-.19,3,3,0,0,1,.51-.08,6.26,6.26,0,0,0,1-.2v-.15a.61.61,0,0,0-.16-.49,1,1,0,0,0-.66-.2,1,1,0,0,0-.59.14.92.92,0,0,0-.29.5L25,34.81a1.42,1.42,0,0,1,.26-.58,1,1,0,0,1,.5-.34,2.26,2.26,0,0,1,.77-.12,2,2,0,0,1,.7.1.93.93,0,0,1,.4.26,1,1,0,0,1,.18.39,3.28,3.28,0,0,1,0,.52v.77a8.82,8.82,0,0,0,0,1,1.22,1.22,0,0,0,.15.4h-.6A1.31,1.31,0,0,1,27.26,36.81Zm0-1.28a4.63,4.63,0,0,1-.94.21,2.14,2.14,0,0,0-.5.12.44.44,0,0,0-.22.18.48.48,0,0,0-.08.28.47.47,0,0,0,.17.38.76.76,0,0,0,.51.15,1.28,1.28,0,0,0,.59-.14.89.89,0,0,0,.37-.4,1.24,1.24,0,0,0,.1-.57Z"/><path class="cls-1" d="M28.68,37.22V33.84h.52v.48a1.2,1.2,0,0,1,1.07-.55,1.27,1.27,0,0,1,.56.11.91.91,0,0,1,.39.29,1.16,1.16,0,0,1,.18.42,3.43,3.43,0,0,1,0,.56v2.07h-.58v-2a1.75,1.75,0,0,0-.06-.53.62.62,0,0,0-.24-.27.75.75,0,0,0-.4-.11.92.92,0,0,0-.63.24,1.11,1.11,0,0,0-.27.88v1.84Z"/></g><g class="cls-2"><g class="cls-2"><path class="cls-1" d="M74.23,36l.56.08a1.46,1.46,0,0,1-.47.91,1.4,1.4,0,0,1-.94.33,1.45,1.45,0,0,1-1.11-.45,1.86,1.86,0,0,1-.42-1.3,2.35,2.35,0,0,1,.18-1,1.24,1.24,0,0,1,.55-.62,1.73,1.73,0,0,1,.81-.2,1.4,1.4,0,0,1,.9.28,1.27,1.27,0,0,1,.45.79l-.56.08a.94.94,0,0,0-.28-.51.77.77,0,0,0-.49-.17.87.87,0,0,0-.7.31,1.47,1.47,0,0,0-.27,1,1.5,1.5,0,0,0,.26,1,.86.86,0,0,0,.68.31.79.79,0,0,0,.56-.21A1,1,0,0,0,74.23,36Z"/></g><g class="cls-2"><path class="cls-1" d="M75,35.53a1.74,1.74,0,0,1,.52-1.39,1.58,1.58,0,0,1,1.07-.37,1.51,1.51,0,0,1,1.13.45,1.74,1.74,0,0,1,.45,1.27,2.22,2.22,0,0,1-.2,1,1.39,1.39,0,0,1-.57.58,1.63,1.63,0,0,1-.81.21,1.49,1.49,0,0,1-1.15-.46A1.82,1.82,0,0,1,75,35.53Zm.59,0a1.41,1.41,0,0,0,.28,1,.91.91,0,0,0,.72.33.87.87,0,0,0,.7-.33,1.44,1.44,0,0,0,.29-1,1.42,1.42,0,0,0-.29-.95.91.91,0,0,0-.7-.32.93.93,0,0,0-.72.32A1.44,1.44,0,0,0,75.59,35.53Z"/><path class="cls-1" d="M78.84,37.22V33.84h.51v.48a1.15,1.15,0,0,1,.42-.4,1.21,1.21,0,0,1,.6-.15,1.16,1.16,0,0,1,.62.15.88.88,0,0,1,.34.44,1.2,1.2,0,0,1,1-.59,1,1,0,0,1,.77.28,1.17,1.17,0,0,1,.27.85v2.32h-.57V35.09a1.52,1.52,0,0,0,0-.49.52.52,0,0,0-.2-.24.6.6,0,0,0-.35-.1.81.81,0,0,0-.59.24,1,1,0,0,0-.23.76v2h-.58V35a.94.94,0,0,0-.14-.58.53.53,0,0,0-.45-.19.87.87,0,0,0-.45.13.73.73,0,0,0-.3.37,2.19,2.19,0,0,0-.09.71v1.75Z"/><path class="cls-1" d="M84.26,38.52V33.84h.52v.44a1.34,1.34,0,0,1,.42-.38,1.1,1.1,0,0,1,.56-.13,1.34,1.34,0,0,1,.77.22,1.44,1.44,0,0,1,.5.63,2.39,2.39,0,0,1,0,1.82,1.4,1.4,0,0,1-1.29.86,1.07,1.07,0,0,1-.51-.12,1.13,1.13,0,0,1-.37-.31v1.65Zm.52-3a1.46,1.46,0,0,0,.27,1,.81.81,0,0,0,.63.31.82.82,0,0,0,.66-.33,1.51,1.51,0,0,0,.27-1,1.45,1.45,0,0,0-.27-1,.76.76,0,0,0-.63-.32.83.83,0,0,0-.65.34A1.52,1.52,0,0,0,84.78,35.55Z"/><path class="cls-1" d="M90.09,36.81a2.32,2.32,0,0,1-.61.38,1.9,1.9,0,0,1-.63.11A1.23,1.23,0,0,1,88,37a.91.91,0,0,1-.3-.7.92.92,0,0,1,.41-.78,1.4,1.4,0,0,1,.41-.19,3,3,0,0,1,.51-.08,6.26,6.26,0,0,0,1-.2v-.15a.61.61,0,0,0-.16-.49.94.94,0,0,0-.65-.2,1.06,1.06,0,0,0-.6.14.92.92,0,0,0-.28.5l-.56-.07a1.29,1.29,0,0,1,.25-.58,1.12,1.12,0,0,1,.51-.34,2.2,2.2,0,0,1,.76-.12,2,2,0,0,1,.71.1.83.83,0,0,1,.39.26.79.79,0,0,1,.18.39,2.94,2.94,0,0,1,0,.52v.77a6.89,6.89,0,0,0,0,1,1.19,1.19,0,0,0,.14.4h-.6A1.3,1.3,0,0,1,90.09,36.81Zm0-1.28a4.67,4.67,0,0,1-.93.21,1.89,1.89,0,0,0-.5.12.47.47,0,0,0-.23.18.57.57,0,0,0-.08.28.5.5,0,0,0,.17.38.78.78,0,0,0,.51.15,1.25,1.25,0,0,0,.59-.14.92.92,0,0,0,.38-.4,1.41,1.41,0,0,0,.09-.57Z"/><path class="cls-1" d="M91.51,37.22V33.84H92v.48a1.22,1.22,0,0,1,1.08-.55,1.3,1.3,0,0,1,.56.11.82.82,0,0,1,.38.29.9.9,0,0,1,.18.42,3.43,3.43,0,0,1,0,.56v2.07h-.57v-2a1.44,1.44,0,0,0-.07-.53.54.54,0,0,0-.23-.27.77.77,0,0,0-.4-.11.88.88,0,0,0-.63.24,1.11,1.11,0,0,0-.27.88v1.84Z"/><path class="cls-1" d="M95.1,38.52,95,38a1.56,1.56,0,0,0,.33,0,.51.51,0,0,0,.3-.07.47.47,0,0,0,.19-.18,1.87,1.87,0,0,0,.18-.42.82.82,0,0,1,0-.14l-1.28-3.39h.61l.71,2q.14.38.24.78a6.86,6.86,0,0,1,.24-.77l.72-2h.57l-1.28,3.44a6.31,6.31,0,0,1-.33.77,1.1,1.1,0,0,1-.35.41.79.79,0,0,1-.47.13A1.09,1.09,0,0,1,95.1,38.52Z"/></g></g></svg>